<?xml version="1.0" encoding="UTF-8" standalone="no"?>
<svg
   xmlns:dc="http://purl.org/dc/elements/1.1/"
   xmlns:cc="http://creativecommons.org/ns#"
   xmlns:rdf="http://www.w3.org/1999/02/22-rdf-syntax-ns#"
   xmlns:svg="http://www.w3.org/2000/svg"
   xmlns="http://www.w3.org/2000/svg"
   viewBox="0 0 288.55865 101.46453"
   height="101.46453"
   width="288.55865"
   xml:space="preserve"
   id="svg2"
   version="1.1"><metadata
     id="metadata8"><rdf:RDF><cc:Work
         rdf:about=""><dc:format>image/svg+xml</dc:format><dc:type
           rdf:resource="http://purl.org/dc/dcmitype/StillImage" /></cc:Work></rdf:RDF></metadata><defs
     id="defs6"><clipPath
       id="clipPath20"
       clipPathUnits="userSpaceOnUse"><path
         id="path18"
         d="M 0,76.098 H 216.419 V 0 H 0 Z" /></clipPath></defs><g
     transform="matrix(1.3333333,0,0,-1.3333333,0,101.46453)"
     id="g10"><path
       id="path12"
       style="fill:#1b3456;fill-opacity:1;fill-rule:nonzero;stroke:none"
       d="M 0,0 H 216.419 V 76.099 H 0 Z" /><g
       id="g14"><g
         clip-path="url(#clipPath20)"
         id="g16"><g
           transform="translate(37.126,36.7554)"
           id="g22"><path
             id="path24"
             style="fill:#80cc28;fill-opacity:1;fill-rule:nonzero;stroke:none"
             d="m 0,0 c -0.104,0.103 -0.155,0.224 -0.155,0.363 v 13.468 c 0,0.152 0.051,0.276 0.155,0.373 0.103,0.097 0.224,0.145 0.363,0.145 h 2.61 c 0.152,0 0.276,-0.048 0.373,-0.145 0.097,-0.097 0.145,-0.221 0.145,-0.373 v -4.6 l 3.834,4.724 c 0.166,0.263 0.435,0.394 0.808,0.394 h 2.984 c 0.124,0 0.228,-0.045 0.31,-0.135 0.083,-0.09 0.125,-0.189 0.125,-0.3 0,-0.097 -0.021,-0.18 -0.063,-0.249 L 6.517,7.408 11.863,0.528 c 0.055,-0.055 0.082,-0.138 0.082,-0.249 0,-0.11 -0.041,-0.21 -0.124,-0.3 -0.082,-0.09 -0.186,-0.135 -0.311,-0.135 H 8.423 c -0.332,0 -0.608,0.139 -0.829,0.415 L 3.491,5.377 V 0.363 C 3.491,0.21 3.443,0.085 3.346,-0.011 3.249,-0.107 3.125,-0.156 2.973,-0.156 H 0.363 C 0.224,-0.156 0.103,-0.104 0,0" /></g><g
           transform="translate(57.7229,40.0596)"
           id="g26"><path
             id="path28"
             style="fill:#80cc28;fill-opacity:1;fill-rule:nonzero;stroke:none"
             d="m 0,0 c 0.449,0.457 0.687,1.153 0.715,2.093 0.027,0.801 0.041,1.368 0.041,1.7 0,0.358 -0.014,0.925 -0.041,1.699 -0.028,0.939 -0.27,1.637 -0.726,2.092 -0.455,0.457 -1.056,0.684 -1.802,0.684 -0.746,0 -1.344,-0.227 -1.793,-0.684 C -4.055,7.129 -4.3,6.431 -4.341,5.492 -4.355,5.105 -4.362,4.539 -4.362,3.793 c 0,-0.733 0.007,-1.299 0.021,-1.7 C -4.3,1.153 -4.058,0.457 -3.616,0 c 0.442,-0.455 1.043,-0.684 1.803,-0.684 0.759,0 1.363,0.229 1.813,0.684 m -6.413,-2.237 c -1.119,0.953 -1.714,2.355 -1.782,4.206 -0.014,0.4 -0.021,0.995 -0.021,1.782 0,0.801 0.007,1.402 0.021,1.803 0.068,1.823 0.673,3.228 1.813,4.217 1.14,0.987 2.662,1.481 4.569,1.481 1.906,0 3.433,-0.494 4.579,-1.481 C 3.913,8.782 4.513,7.377 4.569,5.554 4.596,4.752 4.61,4.151 4.61,3.751 4.61,3.364 4.596,2.77 4.569,1.969 4.5,0.118 3.905,-1.284 2.787,-2.237 c -1.119,-0.954 -2.653,-1.43 -4.6,-1.43 -1.948,0 -3.481,0.476 -4.6,1.43" /></g><g
           transform="translate(72.476,40.0596)"
           id="g30"><path
             id="path32"
             style="fill:#80cc28;fill-opacity:1;fill-rule:nonzero;stroke:none"
             d="m 0,0 c 0.449,0.457 0.687,1.153 0.715,2.093 0.028,0.801 0.042,1.368 0.042,1.7 0,0.358 -0.014,0.925 -0.042,1.699 C 0.687,6.431 0.446,7.129 -0.01,7.584 -0.466,8.041 -1.067,8.268 -1.813,8.268 -2.559,8.268 -3.157,8.041 -3.606,7.584 -4.054,7.129 -4.299,6.431 -4.341,5.492 -4.355,5.105 -4.361,4.539 -4.361,3.793 c 0,-0.733 0.006,-1.299 0.02,-1.7 0.042,-0.94 0.283,-1.636 0.725,-2.093 0.443,-0.455 1.043,-0.684 1.803,-0.684 0.759,0 1.364,0.229 1.813,0.684 m -6.413,-2.237 c -1.119,0.953 -1.713,2.355 -1.782,4.206 -0.014,0.4 -0.021,0.995 -0.021,1.782 0,0.801 0.007,1.402 0.021,1.803 0.069,1.823 0.673,3.228 1.813,4.217 1.14,0.987 2.663,1.481 4.569,1.481 1.906,0 3.433,-0.494 4.579,-1.481 C 3.913,8.782 4.514,7.377 4.569,5.554 4.597,4.752 4.611,4.151 4.611,3.751 4.611,3.364 4.597,2.77 4.569,1.969 4.5,0.118 3.906,-1.284 2.787,-2.237 c -1.119,-0.954 -2.652,-1.43 -4.6,-1.43 -1.948,0 -3.481,0.476 -4.6,1.43" /></g><g
           transform="translate(85.3957,39.5841)"
           id="g34"><path
             id="path36"
             style="fill:#80cc28;fill-opacity:1;fill-rule:nonzero;stroke:none"
             d="m 0,0 c 0.911,0 1.581,0.217 2.01,0.652 0.428,0.435 0.656,1.129 0.683,2.083 0.028,0.4 0.042,0.918 0.042,1.553 0,0.636 -0.014,1.147 -0.042,1.534 C 2.666,6.747 2.421,7.431 1.958,7.873 1.495,8.315 0.808,8.536 -0.104,8.536 H -2.176 V 0 Z m -5.751,-2.829 c -0.103,0.104 -0.155,0.224 -0.155,0.363 v 13.468 c 0,0.152 0.052,0.276 0.155,0.373 0.105,0.097 0.225,0.146 0.363,0.146 H 0 c 2.031,0 3.606,-0.484 4.724,-1.451 C 5.843,9.103 6.431,7.701 6.485,5.864 6.499,5.463 6.506,4.931 6.506,4.268 6.506,3.605 6.499,3.08 6.485,2.693 6.416,0.773 5.847,-0.653 4.776,-1.586 3.705,-2.518 2.148,-2.985 0.103,-2.985 h -5.491 c -0.138,0 -0.258,0.052 -0.363,0.156" /></g><g
           transform="translate(94.4815,36.7554)"
           id="g38"><path
             id="path40"
             style="fill:#80cc28;fill-opacity:1;fill-rule:nonzero;stroke:none"
             d="m 0,0 c -0.103,0.103 -0.155,0.224 -0.155,0.363 v 13.468 c 0,0.152 0.052,0.276 0.155,0.373 0.104,0.097 0.225,0.145 0.363,0.145 h 2.776 c 0.152,0 0.28,-0.048 0.384,-0.145 0.103,-0.097 0.156,-0.221 0.156,-0.373 V 0.363 C 3.679,0.21 3.626,0.085 3.523,-0.011 3.419,-0.107 3.291,-0.156 3.139,-0.156 H 0.363 C 0.225,-0.156 0.104,-0.104 0,0" /></g><g
           transform="translate(101.1953,36.7554)"
           id="g42"><path
             id="path44"
             style="fill:#80cc28;fill-opacity:1;fill-rule:nonzero;stroke:none"
             d="m 0,0 c -0.104,0.103 -0.155,0.224 -0.155,0.363 v 13.468 c 0,0.152 0.051,0.276 0.155,0.373 0.103,0.097 0.224,0.145 0.363,0.145 h 2.734 c 0.152,0 0.277,-0.048 0.373,-0.145 0.097,-0.097 0.146,-0.221 0.146,-0.373 V 2.973 h 6.278 c 0.152,0 0.277,-0.052 0.373,-0.155 0.096,-0.104 0.146,-0.232 0.146,-0.384 V 0.363 C 10.413,0.224 10.363,0.103 10.267,0 10.171,-0.104 10.046,-0.156 9.894,-0.156 H 0.363 C 0.224,-0.156 0.103,-0.104 0,0" /></g><g
           transform="translate(121.3044,42.1323)"
           id="g46"><path
             id="path48"
             style="fill:#80cc28;fill-opacity:1;fill-rule:nonzero;stroke:none"
             d="M 0,0 -1.927,5.471 -3.854,0 Z m -9.024,-5.398 c -0.09,0.09 -0.135,0.19 -0.135,0.3 0,0.084 0.007,0.146 0.021,0.187 l 4.87,13.303 c 0.041,0.166 0.131,0.303 0.269,0.415 0.138,0.11 0.318,0.165 0.539,0.165 h 3.067 c 0.22,0 0.4,-0.055 0.538,-0.165 C 0.283,8.695 0.373,8.558 0.415,8.392 L 5.263,-4.911 5.305,-5.098 c 0,-0.11 -0.045,-0.21 -0.135,-0.3 C 5.08,-5.488 4.974,-5.533 4.849,-5.533 H 2.3 c -0.331,0 -0.553,0.145 -0.663,0.435 l -0.808,2.114 h -5.532 l -0.788,-2.114 c -0.111,-0.29 -0.338,-0.435 -0.684,-0.435 h -2.549 c -0.11,0 -0.21,0.045 -0.3,0.135" /></g><g
           transform="translate(134.8564,39.2935)"
           id="g50"><path
             id="path52"
             style="fill:#80cc28;fill-opacity:1;fill-rule:nonzero;stroke:none"
             d="M 0,0 C 0.566,0 1.008,0.165 1.326,0.497 1.643,0.828 1.802,1.229 1.802,1.699 1.802,2.196 1.643,2.607 1.326,2.932 1.008,3.256 0.566,3.418 0,3.418 H -2.881 V 0 Z m -0.186,6.05 c 0.552,0 0.973,0.142 1.264,0.425 0.289,0.284 0.435,0.659 0.435,1.129 0,0.457 -0.146,0.823 -0.435,1.099 C 0.787,8.979 0.366,9.118 -0.186,9.118 H -2.881 V 6.05 Z m -6.269,-8.588 c -0.103,0.103 -0.156,0.224 -0.156,0.363 v 13.468 c 0,0.152 0.053,0.276 0.156,0.373 0.104,0.097 0.225,0.145 0.363,0.145 h 6.32 c 1.74,0 3.035,-0.356 3.885,-1.067 C 4.963,10.032 5.387,9.021 5.387,7.708 5.387,7.017 5.211,6.433 4.859,5.957 4.507,5.481 4.109,5.131 3.668,4.911 4.234,4.648 4.711,4.227 5.097,3.647 5.484,3.067 5.678,2.417 5.678,1.699 5.678,0.318 5.221,-0.76 4.309,-1.534 3.398,-2.307 2.099,-2.694 0.414,-2.694 h -6.506 c -0.138,0 -0.259,0.052 -0.363,0.156" /></g><g
           transform="translate(150.5729,40.0596)"
           id="g54"><path
             id="path56"
             style="fill:#80cc28;fill-opacity:1;fill-rule:nonzero;stroke:none"
             d="m 0,0 c 0.449,0.457 0.687,1.153 0.715,2.093 0.028,0.801 0.042,1.368 0.042,1.7 0,0.358 -0.014,0.925 -0.042,1.699 C 0.687,6.431 0.446,7.129 -0.01,7.584 -0.466,8.041 -1.067,8.268 -1.813,8.268 -2.559,8.268 -3.157,8.041 -3.606,7.584 -4.054,7.129 -4.299,6.431 -4.341,5.492 -4.355,5.105 -4.361,4.539 -4.361,3.793 c 0,-0.733 0.006,-1.299 0.02,-1.7 0.042,-0.94 0.283,-1.636 0.725,-2.093 0.443,-0.455 1.043,-0.684 1.803,-0.684 0.759,0 1.364,0.229 1.813,0.684 m -6.413,-2.237 c -1.119,0.953 -1.713,2.355 -1.782,4.206 -0.014,0.4 -0.021,0.995 -0.021,1.782 0,0.801 0.007,1.402 0.021,1.803 0.069,1.823 0.673,3.228 1.813,4.217 1.14,0.987 2.663,1.481 4.569,1.481 1.906,0 3.433,-0.494 4.579,-1.481 C 3.913,8.782 4.514,7.377 4.569,5.554 4.597,4.752 4.611,4.151 4.611,3.751 4.611,3.364 4.597,2.77 4.569,1.969 4.5,0.118 3.906,-1.284 2.787,-2.237 c -1.119,-0.954 -2.652,-1.43 -4.6,-1.43 -1.948,0 -3.481,0.476 -4.6,1.43" /></g><g
           transform="translate(163.7,44.6603)"
           id="g58"><path
             id="path60"
             style="fill:#80cc28;fill-opacity:1;fill-rule:nonzero;stroke:none"
             d="M 0,0 C 0.635,0 1.119,0.155 1.45,0.466 1.781,0.777 1.948,1.208 1.948,1.761 1.948,2.314 1.785,2.752 1.461,3.077 1.136,3.401 0.649,3.564 0,3.564 H -2.383 V 0 Z m -5.958,-7.905 c -0.103,0.103 -0.155,0.224 -0.155,0.363 V 5.926 c 0,0.152 0.052,0.276 0.155,0.373 0.104,0.097 0.225,0.145 0.363,0.145 h 5.636 c 1.81,0 3.222,-0.411 4.237,-1.233 C 5.294,4.39 5.802,3.225 5.802,1.72 5.802,0.753 5.573,-0.069 5.118,-0.746 4.662,-1.423 4.033,-1.941 3.232,-2.3 l 2.839,-5.098 c 0.042,-0.082 0.062,-0.159 0.062,-0.228 0,-0.11 -0.045,-0.21 -0.135,-0.3 -0.089,-0.09 -0.19,-0.135 -0.3,-0.135 H 2.942 c -0.401,0 -0.684,0.186 -0.85,0.559 l -2.362,4.559 h -2.113 v -4.599 c 0,-0.153 -0.052,-0.278 -0.156,-0.374 -0.103,-0.096 -0.231,-0.145 -0.383,-0.145 h -2.673 c -0.138,0 -0.259,0.052 -0.363,0.156" /></g><g
           transform="translate(173.7292,36.1387)"
           id="g62"><path
             id="path64"
             style="fill:#2c9a56;fill-opacity:1;fill-rule:nonzero;stroke:none"
             d="M 0,0 7.762,16.114 10.016,15.061 2.273,-1.053 Z" /></g><g
           transform="translate(145.7638,26.04)"
           id="g66"><path
             id="path68"
             style="fill:#00adef;fill-opacity:1;fill-rule:nonzero;stroke:none"
             d="M 0,0 H -0.879 V 0.977 H 0 V 1.989 L 1.155,2.318 V 0.977 H 3.481 V 0 H 1.155 v -1.27 c 0,-0.456 0.086,-0.786 0.257,-0.99 0.172,-0.204 0.411,-0.307 0.72,-0.307 0.16,0 0.304,0.019 0.435,0.058 0.13,0.038 0.247,0.087 0.351,0.147 0.103,0.059 0.198,0.124 0.284,0.195 0.086,0.071 0.164,0.136 0.235,0.195 L 3.97,-2.771 C 3.869,-2.889 3.744,-2.997 3.593,-3.095 3.441,-3.193 3.279,-3.279 3.104,-3.353 2.929,-3.427 2.747,-3.484 2.558,-3.526 2.368,-3.567 2.182,-3.588 1.998,-3.588 1.336,-3.588 0.836,-3.403 0.502,-3.033 0.168,-2.663 0,-2.075 0,-1.27 Z" /></g><g
           transform="translate(153.5523,26.1644)"
           id="g70"><path
             id="path72"
             style="fill:#00adef;fill-opacity:1;fill-rule:nonzero;stroke:none"
             d="M 0,0 C -0.225,0 -0.431,-0.056 -0.617,-0.169 -0.804,-0.281 -0.933,-0.45 -1.004,-0.675 v -1.847 c 0.083,-0.065 0.203,-0.117 0.36,-0.156 0.157,-0.038 0.315,-0.057 0.475,-0.057 0.165,0 0.319,0.028 0.462,0.084 0.142,0.056 0.266,0.146 0.373,0.271 0.107,0.124 0.189,0.281 0.248,0.471 0.059,0.189 0.089,0.417 0.089,0.683 0,0.391 -0.095,0.693 -0.284,0.906 C 0.53,-0.107 0.29,0 0,0 m -2.824,0.852 h 1.509 l 0.133,-0.533 h 0.036 c 0.308,0.439 0.805,0.658 1.492,0.658 0.273,0 0.523,-0.043 0.75,-0.129 C 1.324,0.762 1.52,0.627 1.682,0.444 1.845,0.26 1.972,0.029 2.06,-0.249 2.149,-0.527 2.193,-0.861 2.193,-1.252 2.193,-1.631 2.143,-1.973 2.042,-2.278 1.941,-2.583 1.797,-2.842 1.607,-3.055 1.417,-3.268 1.187,-3.431 0.914,-3.543 0.642,-3.656 0.331,-3.712 -0.018,-3.712 c -0.184,0 -0.364,0.013 -0.542,0.04 -0.177,0.026 -0.325,0.069 -0.444,0.129 v -1.821 h -1.154 v 5.24 h -0.666 z" /></g><g
           transform="translate(157.7526,26.04)"
           id="g74"><path
             id="path76"
             style="fill:#00adef;fill-opacity:1;fill-rule:nonzero;stroke:none"
             d="M 0,0 H -0.879 V 0.977 H 0 V 1.989 L 1.155,2.318 V 0.977 H 3.481 V 0 H 1.155 v -1.27 c 0,-0.456 0.086,-0.786 0.257,-0.99 0.172,-0.204 0.411,-0.307 0.72,-0.307 0.16,0 0.304,0.019 0.435,0.058 0.13,0.038 0.247,0.087 0.351,0.147 0.103,0.059 0.198,0.124 0.284,0.195 0.086,0.071 0.164,0.136 0.235,0.195 L 3.97,-2.771 C 3.869,-2.889 3.744,-2.997 3.593,-3.095 3.441,-3.193 3.279,-3.279 3.104,-3.353 2.929,-3.427 2.747,-3.484 2.558,-3.526 2.368,-3.567 2.182,-3.588 1.998,-3.588 1.336,-3.588 0.836,-3.403 0.502,-3.033 0.168,-2.663 0,-2.075 0,-1.27 Z" /></g><g
           transform="translate(163.4894,28.7928)"
           id="g78"><path
             id="path80"
             style="fill:#00adef;fill-opacity:1;fill-rule:nonzero;stroke:none"
             d="m 0,0 h 1.891 v -4.103 c 0,-0.456 0.057,-0.772 0.169,-0.95 0.112,-0.178 0.293,-0.266 0.542,-0.266 0.183,0 0.334,0.019 0.453,0.057 0.118,0.039 0.237,0.094 0.355,0.165 L 3.845,-5.896 C 3.744,-5.962 3.644,-6.023 3.543,-6.079 3.443,-6.135 3.336,-6.182 3.224,-6.221 3.111,-6.259 2.988,-6.289 2.855,-6.31 2.722,-6.33 2.572,-6.341 2.407,-6.341 c -0.557,0 -0.975,0.142 -1.253,0.427 -0.278,0.284 -0.417,0.686 -0.417,1.207 v 3.73 l -0.737,0 z" /></g><g
           transform="translate(171.0213,23.4557)"
           id="g82"><path
             id="path84"
             style="fill:#00adef;fill-opacity:1;fill-rule:nonzero;stroke:none"
             d="M 0,0 C 0.281,0 0.492,0.052 0.632,0.155 0.773,0.259 0.875,0.37 0.939,0.489 V 1.021 C 0.881,1.033 0.794,1.046 0.676,1.061 0.559,1.076 0.434,1.083 0.298,1.083 0.187,1.083 0.077,1.073 -0.035,1.052 -0.146,1.032 -0.246,0.999 -0.333,0.955 -0.421,0.91 -0.491,0.852 -0.544,0.782 -0.597,0.71 -0.623,0.624 -0.623,0.524 -0.623,0.358 -0.575,0.229 -0.478,0.138 -0.382,0.046 -0.223,0 0,0 m -1.511,3.259 c 0.236,0.107 0.51,0.198 0.822,0.275 0.31,0.077 0.679,0.116 1.105,0.116 0.307,0 0.57,-0.037 0.786,-0.111 C 1.418,3.465 1.593,3.36 1.726,3.224 1.859,3.087 1.955,2.925 2.014,2.735 2.073,2.546 2.103,2.333 2.103,2.096 2.103,1.794 2.093,1.536 2.072,1.323 2.051,1.11 2.041,0.92 2.041,0.755 2.041,0.631 2.047,0.491 2.059,0.338 2.071,0.254 2.079,0.175 2.086,0.098 H 2.662 V -0.879 H 1.172 L 1.055,-0.275 H 1.011 C 0.893,-0.459 0.726,-0.617 0.508,-0.751 0.291,-0.883 -0.004,-0.95 -0.374,-0.95 c -0.442,0 -0.792,0.118 -1.051,0.355 -0.259,0.237 -0.388,0.551 -0.388,0.941 0,0.249 0.045,0.463 0.136,0.644 0.091,0.181 0.224,0.329 0.398,0.444 0.173,0.116 0.382,0.201 0.626,0.258 0.244,0.056 0.516,0.084 0.816,0.084 0.106,0 0.218,-0.006 0.336,-0.018 C 0.616,1.746 0.76,1.734 0.931,1.723 0.942,1.782 0.949,1.841 0.949,1.9 V 2.069 C 0.949,2.294 0.884,2.455 0.754,2.553 0.625,2.651 0.434,2.7 0.181,2.7 -0.119,2.7 -0.389,2.661 -0.629,2.584 -0.871,2.507 -1.073,2.43 -1.238,2.353 Z" /></g><g
           transform="translate(177.4223,26.1466)"
           id="g86"><path
             id="path88"
             style="fill:#00adef;fill-opacity:1;fill-rule:nonzero;stroke:none"
             d="m 0,0 c -0.083,0 -0.175,-0.015 -0.275,-0.044 -0.101,-0.03 -0.197,-0.072 -0.289,-0.125 -0.091,-0.053 -0.177,-0.12 -0.258,-0.2 -0.079,-0.08 -0.137,-0.17 -0.172,-0.271 v -1.847 c 0.094,-0.047 0.224,-0.094 0.391,-0.142 0.165,-0.047 0.343,-0.071 0.532,-0.071 0.154,0 0.301,0.028 0.44,0.085 0.138,0.056 0.26,0.143 0.364,0.262 0.103,0.118 0.185,0.266 0.244,0.444 0.059,0.177 0.089,0.39 0.089,0.639 0,0.42 -0.09,0.737 -0.271,0.95 C 0.614,-0.107 0.349,0 0,0 m -2.833,2.646 h 1.839 V 0.515 h 0.035 c 0.124,0.142 0.291,0.254 0.502,0.337 0.21,0.083 0.469,0.125 0.776,0.125 0.587,0 1.056,-0.184 1.408,-0.551 0.352,-0.367 0.529,-0.921 0.529,-1.661 0,-0.396 -0.06,-0.747 -0.178,-1.052 C 1.96,-2.592 1.792,-2.846 1.576,-3.051 1.36,-3.255 1.097,-3.41 0.786,-3.517 c -0.31,-0.106 -0.662,-0.16 -1.053,-0.16 -0.461,0 -0.847,0.054 -1.158,0.16 -0.311,0.107 -0.552,0.213 -0.724,0.32 v 4.866 h -0.684 z" /></g><g
           transform="translate(182.6445,23.1626)"
           id="g90"><path
             id="path92"
             style="fill:#00adef;fill-opacity:1;fill-rule:nonzero;stroke:none"
             d="M 0,0 C 0,0.207 0.065,0.371 0.195,0.493 0.326,0.614 0.497,0.675 0.71,0.675 0.935,0.675 1.113,0.614 1.243,0.493 1.373,0.371 1.439,0.207 1.439,0 1.439,-0.207 1.373,-0.373 1.243,-0.497 1.113,-0.622 0.935,-0.684 0.71,-0.684 0.497,-0.684 0.326,-0.622 0.195,-0.497 0.065,-0.373 0,-0.207 0,0" /></g><g
           transform="translate(189.5181,26.2175)"
           id="g94"><path
             id="path96"
             style="fill:#00adef;fill-opacity:1;fill-rule:nonzero;stroke:none"
             d="m 0,0 c -0.155,0 -0.299,-0.021 -0.436,-0.063 -0.136,-0.043 -0.259,-0.104 -0.368,-0.186 -0.109,-0.081 -0.2,-0.182 -0.271,-0.303 -0.071,-0.12 -0.112,-0.256 -0.124,-0.407 h 2.185 c 0,0.296 -0.082,0.529 -0.245,0.701 C 0.578,-0.086 0.331,0 0,0 M 1.918,-3.17 C 1.841,-3.241 1.742,-3.311 1.62,-3.379 1.499,-3.447 1.357,-3.511 1.194,-3.57 1.031,-3.629 0.852,-3.676 0.657,-3.712 0.462,-3.748 0.254,-3.765 0.035,-3.765 c -0.379,0 -0.718,0.053 -1.016,0.159 -0.3,0.107 -0.553,0.262 -0.76,0.467 -0.207,0.204 -0.366,0.449 -0.475,0.737 -0.11,0.287 -0.165,0.614 -0.165,0.981 0,0.391 0.063,0.733 0.187,1.026 0.124,0.293 0.295,0.537 0.511,0.732 0.216,0.196 0.469,0.342 0.759,0.44 0.29,0.098 0.604,0.147 0.941,0.147 0.225,0 0.458,-0.03 0.698,-0.089 0.24,-0.06 0.46,-0.161 0.661,-0.307 0.202,-0.145 0.366,-0.339 0.493,-0.581 0.127,-0.243 0.191,-0.551 0.191,-0.924 0,-0.254 -0.03,-0.53 -0.088,-0.826 h -3.198 c 0.006,-0.189 0.046,-0.349 0.12,-0.479 0.074,-0.13 0.172,-0.237 0.293,-0.32 0.121,-0.083 0.261,-0.144 0.418,-0.182 0.157,-0.038 0.323,-0.058 0.501,-0.058 0.356,0 0.647,0.042 0.875,0.125 0.228,0.082 0.413,0.183 0.555,0.301 z" /></g><g
           transform="translate(195.5121,26.2175)"
           id="g98"><path
             id="path100"
             style="fill:#00adef;fill-opacity:1;fill-rule:nonzero;stroke:none"
             d="m 0,0 c -0.155,0 -0.299,-0.021 -0.436,-0.063 -0.136,-0.043 -0.259,-0.104 -0.368,-0.186 -0.109,-0.081 -0.2,-0.182 -0.271,-0.303 -0.071,-0.12 -0.112,-0.256 -0.124,-0.407 h 2.185 c 0,0.296 -0.082,0.529 -0.244,0.701 C 0.578,-0.086 0.331,0 0,0 M 1.918,-3.17 C 1.841,-3.241 1.742,-3.311 1.62,-3.379 1.499,-3.447 1.357,-3.511 1.194,-3.57 1.031,-3.629 0.852,-3.676 0.657,-3.712 0.462,-3.748 0.254,-3.765 0.035,-3.765 c -0.379,0 -0.718,0.053 -1.016,0.159 -0.3,0.107 -0.553,0.262 -0.76,0.467 -0.207,0.204 -0.366,0.449 -0.475,0.737 -0.11,0.287 -0.165,0.614 -0.165,0.981 0,0.391 0.063,0.733 0.187,1.026 0.124,0.293 0.295,0.537 0.511,0.732 0.216,0.196 0.469,0.342 0.759,0.44 0.29,0.098 0.604,0.147 0.941,0.147 0.225,0 0.458,-0.03 0.698,-0.089 0.24,-0.06 0.46,-0.161 0.661,-0.307 0.202,-0.145 0.366,-0.339 0.493,-0.581 0.127,-0.243 0.191,-0.551 0.191,-0.924 0,-0.254 -0.03,-0.53 -0.088,-0.826 h -3.198 c 0.006,-0.189 0.046,-0.349 0.12,-0.479 0.074,-0.13 0.172,-0.237 0.293,-0.32 0.121,-0.083 0.261,-0.144 0.418,-0.182 0.157,-0.038 0.323,-0.058 0.501,-0.058 0.356,0 0.647,0.042 0.875,0.125 0.228,0.082 0.413,0.183 0.555,0.301 z" /></g><g
           transform="translate(20.0871,22.2079)"
           id="g102"><path
             id="path104"
             style="fill:#00adef;fill-opacity:1;fill-rule:nonzero;stroke:none"
             d="m 0,0 c -0.044,0.045 -0.066,0.096 -0.066,0.155 v 5.773 c 0,0.065 0.022,0.118 0.066,0.16 0.045,0.041 0.096,0.062 0.155,0.062 h 1.12 C 1.34,6.15 1.393,6.129 1.435,6.088 1.476,6.046 1.497,5.993 1.497,5.928 V 3.957 L 3.139,5.981 C 3.21,6.094 3.326,6.15 3.486,6.15 H 4.765 C 4.818,6.15 4.862,6.131 4.898,6.092 4.933,6.054 4.951,6.011 4.951,5.964 4.951,5.922 4.943,5.886 4.924,5.857 L 2.793,3.175 5.084,0.227 C 5.108,0.203 5.12,0.168 5.12,0.12 5.12,0.073 5.102,0.03 5.067,-0.009 5.031,-0.047 4.987,-0.066 4.933,-0.066 H 3.61 c -0.142,0 -0.26,0.059 -0.355,0.177 L 1.497,2.305 V 0.155 C 1.497,0.09 1.476,0.037 1.435,-0.004 1.393,-0.046 1.34,-0.066 1.275,-0.066 H 0.155 C 0.096,-0.066 0.045,-0.044 0,0" /></g><g
           transform="translate(27.1912,22.6654)"
           id="g106"><path
             id="path108"
             style="fill:#00adef;fill-opacity:1;fill-rule:nonzero;stroke:none"
             d="m 0,0 c -0.47,0.408 -0.706,1.024 -0.706,1.847 v 3.624 c 0,0.065 0.022,0.118 0.067,0.16 0.044,0.041 0.096,0.062 0.156,0.062 h 1.145 c 0.065,0 0.12,-0.021 0.164,-0.062 C 0.871,5.589 0.893,5.536 0.893,5.471 V 1.856 c 0,-0.385 0.09,-0.674 0.271,-0.866 0.18,-0.192 0.442,-0.288 0.786,-0.288 0.337,0 0.598,0.097 0.781,0.292 0.184,0.196 0.275,0.483 0.275,0.862 v 3.615 c 0,0.065 0.023,0.118 0.067,0.16 0.044,0.041 0.096,0.062 0.155,0.062 H 4.382 C 4.448,5.693 4.501,5.672 4.543,5.631 4.584,5.589 4.605,5.536 4.605,5.471 V 1.847 C 4.605,1.024 4.369,0.408 3.899,0 3.428,-0.408 2.781,-0.613 1.959,-0.613 1.124,-0.613 0.471,-0.408 0,0" /></g><g
           transform="translate(35.078,22.2079)"
           id="g110"><path
             id="path112"
             style="fill:#00adef;fill-opacity:1;fill-rule:nonzero;stroke:none"
             d="m 0,0 c -0.045,0.045 -0.066,0.096 -0.066,0.155 v 4.601 h -1.582 c -0.059,0 -0.11,0.022 -0.155,0.067 -0.044,0.044 -0.067,0.096 -0.067,0.155 v 0.95 c 0,0.065 0.023,0.118 0.067,0.16 0.045,0.041 0.096,0.062 0.155,0.062 H 3.13 C 3.195,6.15 3.249,6.129 3.29,6.088 3.332,6.046 3.352,5.993 3.352,5.928 V 4.978 C 3.352,4.913 3.332,4.859 3.29,4.818 3.249,4.776 3.195,4.756 3.13,4.756 H 1.549 V 0.155 C 1.549,0.096 1.529,0.045 1.487,0 1.446,-0.044 1.393,-0.066 1.328,-0.066 H 0.155 C 0.096,-0.066 0.044,-0.044 0,0" /></g><g
           transform="translate(40.7562,22.3012)"
           id="g114"><path
             id="path116"
             style="fill:#00adef;fill-opacity:1;fill-rule:nonzero;stroke:none"
             d="m 0,0 c -0.403,0.166 -0.706,0.384 -0.91,0.653 -0.204,0.269 -0.312,0.564 -0.324,0.883 0,0.048 0.019,0.091 0.057,0.129 0.039,0.039 0.085,0.058 0.138,0.058 H 0.08 C 0.151,1.723 0.209,1.71 0.254,1.683 0.298,1.656 0.343,1.617 0.391,1.563 0.468,1.409 0.592,1.282 0.764,1.182 0.936,1.08 1.164,1.031 1.448,1.031 c 0.337,0 0.595,0.053 0.772,0.159 0.178,0.107 0.267,0.252 0.267,0.435 0,0.13 -0.046,0.237 -0.138,0.321 C 2.257,2.028 2.114,2.102 1.919,2.167 1.723,2.232 1.433,2.306 1.048,2.389 0.337,2.537 -0.194,2.755 -0.546,3.042 c -0.352,0.287 -0.528,0.697 -0.528,1.23 0,0.361 0.101,0.684 0.301,0.968 0.202,0.284 0.489,0.506 0.862,0.666 0.373,0.16 0.808,0.24 1.306,0.24 0.514,0 0.962,-0.089 1.34,-0.267 C 3.114,5.701 3.403,5.478 3.601,5.208 3.8,4.939 3.905,4.674 3.916,4.414 3.916,4.361 3.899,4.316 3.864,4.281 3.828,4.245 3.783,4.228 3.73,4.228 H 2.558 C 2.487,4.228 2.429,4.239 2.385,4.263 2.34,4.286 2.3,4.325 2.265,4.378 2.23,4.515 2.133,4.63 1.976,4.725 1.819,4.82 1.625,4.867 1.395,4.867 1.128,4.867 0.924,4.82 0.782,4.725 0.64,4.63 0.569,4.491 0.569,4.307 0.569,4.183 0.609,4.08 0.689,3.997 0.768,3.913 0.898,3.838 1.079,3.77 1.26,3.702 1.519,3.632 1.857,3.561 2.407,3.461 2.847,3.335 3.175,3.184 3.504,3.033 3.745,2.837 3.899,2.598 4.053,2.358 4.129,2.058 4.129,1.696 4.129,1.3 4.015,0.955 3.788,0.662 3.56,0.369 3.243,0.144 2.837,-0.013 2.432,-0.17 1.969,-0.249 1.448,-0.249 0.885,-0.249 0.403,-0.165 0,0" /></g><g
           transform="translate(46.506,22.2079)"
           id="g118"><path
             id="path120"
             style="fill:#00adef;fill-opacity:1;fill-rule:nonzero;stroke:none"
             d="m 0,0 c -0.044,0.045 -0.066,0.096 -0.066,0.155 v 5.773 c 0,0.065 0.022,0.118 0.066,0.16 C 0.045,6.129 0.096,6.15 0.155,6.15 H 4.303 C 4.368,6.15 4.421,6.129 4.463,6.088 4.504,6.046 4.525,5.993 4.525,5.928 V 5.094 C 4.525,5.034 4.504,4.982 4.463,4.938 4.421,4.893 4.368,4.871 4.303,4.871 H 1.47 V 3.672 H 4.108 C 4.173,3.672 4.226,3.65 4.268,3.606 4.309,3.561 4.33,3.507 4.33,3.441 V 2.669 C 4.33,2.61 4.309,2.558 4.268,2.514 4.226,2.469 4.173,2.447 4.108,2.447 H 1.47 V 1.213 H 4.374 C 4.439,1.213 4.492,1.192 4.533,1.151 4.575,1.109 4.596,1.056 4.596,0.991 V 0.155 C 4.596,0.096 4.575,0.045 4.533,0 4.492,-0.044 4.439,-0.066 4.374,-0.066 H 0.155 C 0.096,-0.066 0.045,-0.044 0,0" /></g><g
           transform="translate(52.847,22.2079)"
           id="g122"><path
             id="path124"
             style="fill:#00adef;fill-opacity:1;fill-rule:nonzero;stroke:none"
             d="m 0,0 c -0.044,0.045 -0.066,0.096 -0.066,0.155 v 5.773 c 0,0.065 0.022,0.118 0.066,0.16 C 0.045,6.129 0.096,6.15 0.155,6.15 H 1.328 C 1.393,6.15 1.446,6.129 1.488,6.088 1.529,6.046 1.55,5.993 1.55,5.928 V 1.275 h 2.691 c 0.065,0 0.118,-0.023 0.16,-0.067 C 4.442,1.164 4.463,1.109 4.463,1.044 V 0.155 C 4.463,0.096 4.442,0.045 4.401,0 4.359,-0.044 4.306,-0.066 4.241,-0.066 H 0.155 C 0.096,-0.066 0.045,-0.044 0,0" /></g><g
           transform="translate(62.1315,24.5126)"
           id="g126"><path
             id="path128"
             style="fill:#00adef;fill-opacity:1;fill-rule:nonzero;stroke:none"
             d="M 0,0 -0.826,2.344 -1.652,0 Z m -3.868,-2.313 c -0.038,0.038 -0.057,0.081 -0.057,0.128 0,0.036 0.003,0.062 0.009,0.081 l 2.087,5.701 c 0.017,0.071 0.056,0.13 0.115,0.178 0.059,0.047 0.136,0.07 0.231,0.07 h 1.314 c 0.095,0 0.172,-0.023 0.231,-0.07 C 0.121,3.727 0.16,3.668 0.178,3.597 l 2.078,-5.701 0.018,-0.081 c 0,-0.047 -0.02,-0.09 -0.058,-0.128 C 2.177,-2.352 2.131,-2.371 2.078,-2.371 H 0.986 c -0.143,0 -0.237,0.062 -0.284,0.186 l -0.347,0.907 h -2.371 l -0.337,-0.907 c -0.048,-0.124 -0.145,-0.186 -0.294,-0.186 h -1.092 c -0.047,0 -0.09,0.019 -0.129,0.058" /></g><g
           transform="translate(68.6054,23.2963)"
           id="g130"><path
             id="path132"
             style="fill:#00adef;fill-opacity:1;fill-rule:nonzero;stroke:none"
             d="M 0,0 C 0.243,0 0.432,0.071 0.568,0.213 0.705,0.355 0.773,0.527 0.773,0.728 0.773,0.941 0.705,1.117 0.568,1.256 0.432,1.396 0.243,1.465 0,1.465 H -1.234 V 0 Z m -0.08,2.593 c 0.237,0 0.417,0.061 0.542,0.182 0.124,0.121 0.186,0.283 0.186,0.484 0,0.195 -0.062,0.352 -0.186,0.471 C 0.337,3.848 0.157,3.907 -0.08,3.907 H -1.234 V 2.593 Z m -2.686,-3.681 c -0.045,0.044 -0.067,0.096 -0.067,0.155 V 4.84 c 0,0.065 0.022,0.118 0.067,0.16 0.044,0.041 0.096,0.062 0.155,0.062 h 2.709 c 0.745,0 1.3,-0.153 1.665,-0.458 C 2.127,4.299 2.309,3.866 2.309,3.303 2.309,3.007 2.233,2.757 2.083,2.553 1.932,2.349 1.761,2.199 1.572,2.104 1.815,1.992 2.018,1.811 2.185,1.562 2.35,1.314 2.433,1.036 2.433,0.728 2.433,0.136 2.238,-0.326 1.847,-0.658 1.456,-0.989 0.9,-1.155 0.178,-1.155 h -2.789 c -0.059,0 -0.111,0.023 -0.155,0.067" /></g><g
           transform="translate(76.0072,23.6244)"
           id="g134"><path
             id="path136"
             style="fill:#00adef;fill-opacity:1;fill-rule:nonzero;stroke:none"
             d="M 0,0 C 0.192,0.196 0.294,0.494 0.306,0.897 0.318,1.24 0.324,1.483 0.324,1.625 0.324,1.779 0.318,2.022 0.306,2.354 0.294,2.756 0.191,3.055 -0.004,3.251 -0.2,3.446 -0.457,3.543 -0.777,3.543 -1.097,3.543 -1.353,3.446 -1.545,3.251 -1.738,3.055 -1.843,2.756 -1.861,2.354 -1.867,2.188 -1.87,1.945 -1.87,1.625 -1.87,1.312 -1.867,1.069 -1.861,0.897 -1.843,0.494 -1.74,0.196 -1.55,0 c 0.19,-0.195 0.447,-0.293 0.773,-0.293 0.325,0 0.584,0.098 0.777,0.293 m -2.748,-0.959 c -0.48,0.408 -0.735,1.01 -0.764,1.803 -0.006,0.171 -0.009,0.427 -0.009,0.763 0,0.344 0.003,0.602 0.009,0.774 0.029,0.781 0.288,1.383 0.777,1.806 0.488,0.424 1.141,0.636 1.958,0.636 0.817,0 1.471,-0.212 1.962,-0.636 C 1.677,3.764 1.934,3.162 1.958,2.381 1.97,2.037 1.976,1.779 1.976,1.607 1.976,1.442 1.97,1.187 1.958,0.844 1.928,0.051 1.674,-0.551 1.194,-0.959 0.715,-1.367 0.058,-1.572 -0.777,-1.572 c -0.835,0 -1.492,0.205 -1.971,0.613" /></g><g
           transform="translate(82.299,25.5959)"
           id="g138"><path
             id="path140"
             style="fill:#00adef;fill-opacity:1;fill-rule:nonzero;stroke:none"
             d="m 0,0 c 0.272,0 0.48,0.066 0.622,0.2 0.142,0.133 0.213,0.318 0.213,0.555 0,0.237 -0.07,0.424 -0.209,0.564 C 0.487,1.458 0.278,1.528 0,1.528 H -1.021 V 0 Z m -2.553,-3.388 c -0.044,0.045 -0.067,0.096 -0.067,0.155 V 2.54 c 0,0.065 0.023,0.118 0.067,0.16 0.045,0.041 0.096,0.062 0.155,0.062 h 2.416 c 0.776,0 1.38,-0.176 1.816,-0.528 C 2.269,1.881 2.487,1.383 2.487,0.737 2.487,0.323 2.389,-0.03 2.193,-0.319 1.998,-0.61 1.729,-0.832 1.385,-0.986 L 2.602,-3.17 C 2.62,-3.206 2.628,-3.238 2.628,-3.268 2.628,-3.315 2.61,-3.358 2.571,-3.397 2.532,-3.435 2.49,-3.454 2.442,-3.454 H 1.261 c -0.172,0 -0.293,0.08 -0.364,0.239 l -1.013,1.954 h -0.905 v -1.972 c 0,-0.065 -0.023,-0.118 -0.067,-0.159 -0.044,-0.042 -0.099,-0.062 -0.164,-0.062 h -1.146 c -0.059,0 -0.11,0.022 -0.155,0.066" /></g><g
           transform="translate(198.6829,42.4149)"
           id="g142"><path
             id="path144"
             style="fill:#2c9a56;fill-opacity:1;fill-rule:nonzero;stroke:none"
             d="m 0,0 -12.316,-6.022 v 3.43 l 8.525,4.036 -8.525,4.049 V 8.897 L 0,2.876 Z" /></g><g
           transform="translate(19.399,45.2904)"
           id="g146"><path
             id="path148"
             style="fill:#2c9a56;fill-opacity:1;fill-rule:nonzero;stroke:none"
             d="M 0,0 12.316,6.022 V 2.592 L 3.791,-1.444 12.316,-5.493 V -8.897 L 0,-2.876 Z" /></g></g></g></g></svg>